<svg id="svg" version="1.1" xmlns="http://www.w3.org/2000/svg" xmlns:xlink="http://www.w3.org/1999/xlink" width="400" height="400" viewBox="0, 0, 400,400"><g id="svgg"><path id="path0" d="M0.000 100.400 L 0.000 200.800 99.553 200.800 L 199.107 200.800 199.351 199.900 C 199.485 199.405,199.591 154.225,199.586 99.500 L 199.578 0.000 99.789 0.000 L 0.000 0.000 0.000 100.400 M199.600 300.400 L 199.600 400.000 299.800 400.000 L 400.000 400.000 400.000 300.400 L 400.000 200.800 299.800 200.800 L 199.600 200.800 199.600 300.400 " stroke="none" fill="#e334e3" fill-rule="evenodd"></path><path id="path1" d="M199.594 1.100 C 199.591 1.705,199.590 46.480,199.592 100.600 C 199.593 154.720,199.485 199.405,199.351 199.900 L 199.107 200.800 99.553 200.800 L 0.000 200.800 0.000 300.400 L 0.000 400.000 99.800 400.000 L 199.600 400.000 199.600 300.400 L 199.600 200.800 299.800 200.800 L 400.000 200.800 400.000 100.400 L 400.000 0.000 299.800 0.000 L 199.600 0.000 199.594 1.100 " stroke="none" fill="#040404" fill-rule="evenodd"></path></g></svg>